<?xml version="1.0" encoding="UTF-8"?><svg id="Layer_1" xmlns="http://www.w3.org/2000/svg" viewBox="0 0 1000 390.8"><defs><style>.cls-1{fill:#c0392b;}.cls-2{fill:#fff;}</style></defs><path class="cls-1" d="M467.68,65.98V25.34h100.79c0,16.46-.04,33.56.93,49.81.27,4.55,3.61,8.32,8.1,9.09,89.39,15.38,177.57,30.02,267.05,44.99,31.53,5.28,56,9.65,87.6,14.48,8.45,1.29,11.66,4.75,14.21,14.44-22.15-3.5-44.28-6.99-67.8-10.7v69.69h-14.61c0-17.25,0-34.4,0-51.55,0-3.6.13-7.22.08-10.78-.14-8.82-3.34-10.83-10.88-12.04-58.87-9.43-117.69-19.2-176.52-28.89-32.61-5.37-65.2-10.8-97.82-16.09-2.74-.44-4.38-.74-9.44-1.29l-.44,102h89.27l.48-29.69c0-4.6,3.73-8.34,8.34-8.34h1.88v39.11c0,5.31-4.3,9.62-9.61,9.64l-545,1.64c-5.39.02-9.76-4.35-9.76-9.73v-40.66l1.27.02c5.82.07,10.5,4.81,10.5,10.63v29.56s342.3-1.07,342.3-1.07c6.99,0,9.67-4.08,9.88-10.31,0,0-.99-65.62-.62-99.42.09-8.15-2.59-11-10.69-12.25-41.17-6.37-82.2-13.67-123.37-20.03-6.73-1.04-14.53-.57-20.82,1.84-82.19,31.48-158.08,61.07-240.13,92.91-2.47.96-10.73,1.32-12.7,1.12-7.18-.72-11.09-6.8-11.09-6.8,0,0,5.38-2.84,7.23-3.67,60.56-26.96,164.93-63.63,247.11-96.16,12.6-4.99,24.22-4.49,36.69-2.34,39.63,6.83,79.3,13.45,118.97,20.1,2.38.4,4.94.96,8.62,1.35ZM560.06,191.71v-89.75c0-4.26-3.16-7.9-7.45-8.59-25.69-4.11-49.86-7.98-76.28-12.2l-.16,118.47h75.19c4.26-.32,8.31-2.72,8.71-7.94ZM559.94,31.33h-84.43c-.23,4.33.05,7.86.03,11.4-.17,24.04-.19,24.25,23.18,28.48,20.02,3.62,40.14,6.69,61.23,10.17V31.33Z"/><path class="cls-1" d="M134.45,182.79v-14.12c0-2.64,2.14-4.77,4.77-4.77h258.1c2.64,0,4.77,2.14,4.77,4.77v14.12c0,2.64-2.14,4.77-4.77,4.77H139.22c-2.64,0-4.77-2.14-4.77-4.77ZM391.72,167.5c-1.12-.04-118.85.02-172.98.02-23.66,0-47.32.28-70.97-.16-8.08-.15-10.06,1.23-10.06,8.79,0,8.61,5.43,7.99,11.36,7.99,79.22-.03,242.3.06,243.06.05,5.9-.04,6.16-4.52,6.23-9.23.04-2.54.01-7.24-6.63-7.47Z"/><path class="cls-2" d="M6.12,236.28h12.12c8.39,0,14.77,1.49,19.14,4.47,4.37,2.98,6.55,7.33,6.55,13.06,0,4.34-1.08,7.85-3.23,10.51-2.16,2.67-5.17,4.6-9.04,5.79-3.87,1.19-8.14,1.79-12.82,1.79H6.12v-35.63ZM19.1,243.86v20.44c3.94-.21,6.72-1.08,8.35-2.6,1.63-1.52,2.44-4.03,2.44-7.51,0-2.06-.29-3.81-.86-5.24-.57-1.43-1.42-2.54-2.55-3.31-1.13-.77-2.23-1.25-3.3-1.43-1.07-.18-2.43-.29-4.09-.35Z"/><path class="cls-2" d="M52.04,246.97h9.08v24.94h-9.08v-24.94Z"/><path class="cls-2" d="M66.92,246.97h9.47l4.95,11.02c.94,2.18,1.58,4.04,1.92,5.58h.12c.3-1.36.63-2.47.99-3.34l5.52-13.26h9.71l-12.02,24.94h-8.42l-12.23-24.94Z"/><path class="cls-2" d="M105.09,246.97h18.37v5.3h-9.29v4.6h8.06v5.17h-8.06v4.54h9.35v5.32h-18.43v-24.94Z"/><path class="cls-2" d="M131.3,246.97h10.58c4.28,0,7.65.68,10.13,2.05s3.72,3.23,3.72,5.58c0,1.21-.47,2.38-1.41,3.5s-2.31,1.98-4.11,2.55l7.25,11.25h-9.59l-7.34-11.36h-.15v11.36h-9.08v-24.94ZM140.38,251.79v5.92c4.02-.05,6.02-.93,6.02-2.63,0-1.16-.46-1.99-1.39-2.49-.93-.5-2.47-.77-4.63-.8Z"/><path class="cls-2" d="M163.21,271.45v-5.81c2.88,1.05,5.29,1.57,7.25,1.57,1.14,0,2.04-.2,2.7-.59.66-.39.99-.91.99-1.56,0-.5-.26-.96-.79-1.4-.53-.44-1.44-.96-2.74-1.59-3.14-1.49-5.41-2.89-6.82-4.17-1.41-1.29-2.11-2.72-2.11-4.31,0-2.15,1.09-3.91,3.27-5.27s5-2.04,8.45-2.04c2.56,0,5.09.34,7.61,1.03v5.59c-2.7-.92-4.89-1.38-6.56-1.38-1.12,0-2,.17-2.65.51-.65.34-.97.81-.97,1.41,0,1.05,1.51,2.22,4.53,3.53,1.8.77,3.62,1.86,5.47,3.26,1.85,1.4,2.77,3.02,2.77,4.87,0,2.15-1.21,3.94-3.63,5.35-2.42,1.41-5.48,2.12-9.2,2.12-2.54,0-5.06-.37-7.55-1.12Z"/><path class="cls-2" d="M191.04,246.97h9.08v24.94h-9.08v-24.94Z"/><path class="cls-2" d="M209.61,246.97h18.37v5.34h-9.29v4.56h8.18v5.17h-8.18v9.86h-9.08v-24.94Z"/><path class="cls-2" d="M234.86,246.97h9.08v24.94h-9.08v-24.94Z"/><path class="cls-2" d="M253.42,246.97h18.37v5.3h-9.29v4.6h8.06v5.17h-8.06v4.54h9.35v5.32h-18.43v-24.94Z"/><path class="cls-2" d="M279.64,246.97h8.48c5.88,0,10.34,1.04,13.4,3.13s4.59,5.13,4.59,9.14c0,3.04-.75,5.49-2.26,7.36-1.51,1.87-3.62,3.22-6.33,4.05-2.71.83-5.7,1.25-8.98,1.25h-8.9v-24.94ZM288.72,252.28v14.31c2.76-.15,4.71-.76,5.84-1.82s1.71-2.82,1.71-5.26c0-1.44-.2-2.67-.6-3.67-.4-1-.99-1.77-1.78-2.32-.79-.54-1.56-.87-2.31-1-.75-.12-1.7-.21-2.86-.24Z"/><path class="cls-2" d="M337.04,236.28h12.97v13.21h11.52v-13.21h12.97v35.63h-12.97v-14.81h-11.52v14.81h-12.97v-35.63Z"/><path class="cls-2" d="M398.83,272.53c-4.84,0-8.52-1.16-11.06-3.46-2.54-2.31-3.81-5.64-3.81-10,0-4.02,1.27-7.16,3.82-9.41s6.1-3.37,10.66-3.37c4.86,0,8.57,1.13,11.14,3.38,2.57,2.25,3.85,5.47,3.85,9.66s-1.26,7.43-3.79,9.74c-2.53,2.31-6.13,3.46-10.81,3.46ZM398.5,251.94c-3.28,0-4.92,2.4-4.92,7.19,0,3.09.42,5.15,1.24,6.18.83,1.03,2.03,1.55,3.61,1.55,1.7,0,3-.52,3.91-1.55.91-1.03,1.36-3.06,1.36-6.07,0-4.87-1.74-7.3-5.21-7.3Z"/><path class="cls-2" d="M423.69,246.97h11.48c1.64,5.38,2.93,10.01,3.87,13.88l.99-3.87c.4-1.51.83-2.98,1.29-4.41l1.77-5.6h11.72l4.56,24.94h-8.99l-2.43-17.15-5.61,17.15h-6.14l-5.88-17.19-2.34,17.19h-8.6l4.32-24.94Z"/><path class="cls-2" d="M467.14,246.97h18.37v5.3h-9.29v4.6h8.06v5.17h-8.06v4.54h9.35v5.32h-18.43v-24.94Z"/><path class="cls-2" d="M518.03,236.28h12.97v35.63h-12.97v-35.63Z"/><path class="cls-2" d="M542.72,246.97h9.17l11.54,14.38-.33-2.69v-11.69h9.08v24.94h-9.32l-11.3-14.16.24,3.1v11.06h-9.08v-24.94Z"/><path class="cls-2" d="M581.4,271.45v-5.81c2.88,1.05,5.29,1.57,7.25,1.57,1.14,0,2.04-.2,2.7-.59.66-.39.99-.91.99-1.56,0-.5-.26-.96-.79-1.4-.53-.44-1.44-.96-2.74-1.59-3.14-1.49-5.41-2.89-6.82-4.17-1.41-1.29-2.11-2.72-2.11-4.31,0-2.15,1.09-3.91,3.27-5.27s5-2.04,8.45-2.04c2.56,0,5.09.34,7.61,1.03v5.59c-2.7-.92-4.89-1.38-6.56-1.38-1.12,0-2,.17-2.65.51-.65.34-.97.81-.97,1.41,0,1.05,1.51,2.22,4.53,3.53,1.8.77,3.62,1.86,5.47,3.26,1.85,1.4,2.77,3.02,2.77,4.87,0,2.15-1.21,3.94-3.63,5.35-2.42,1.41-5.48,2.12-9.2,2.12-2.54,0-5.06-.37-7.55-1.12Z"/><path class="cls-2" d="M608.9,246.97h11.24c3.96,0,7.13.7,9.53,2.11,2.4,1.41,3.6,3.26,3.6,5.57,0,2.43-1.21,4.33-3.64,5.71s-5.79,2.06-10.09,2.06h-1.56v9.49h-9.08v-24.94ZM617.98,251.76v5.88c2.04-.02,3.54-.27,4.51-.73.97-.46,1.45-1.19,1.45-2.19,0-1.07-.47-1.83-1.41-2.27s-2.46-.68-4.56-.7Z"/><path class="cls-2" d="M640.75,246.97h18.37v5.3h-9.29v4.6h8.06v5.17h-8.06v4.54h9.35v5.32h-18.43v-24.94Z"/><path class="cls-2" d="M687.97,266.03v5.92c-1.92.39-3.64.58-5.16.58-5.26,0-9.52-1.23-12.78-3.69-3.27-2.46-4.9-5.69-4.9-9.7,0-3.72,1.65-6.8,4.95-9.22,3.3-2.42,7.46-3.63,12.5-3.63,1.96,0,3.76.16,5.4.49v5.94c-1.74-.36-3.38-.54-4.92-.54-2.36,0-4.32.67-5.88,2.02-1.56,1.35-2.34,3.06-2.34,5.14,0,2.24.78,4.01,2.35,5.31,1.57,1.3,3.66,1.95,6.28,1.95,1.28,0,2.78-.19,4.5-.56Z"/><path class="cls-2" d="M691.46,246.97h21.67v5.7h-6.26v19.24h-9.2v-19.24h-6.2v-5.7Z"/><path class="cls-2" d="M719.71,246.97h9.08v24.94h-9.08v-24.94Z"/><path class="cls-2" d="M751.32,272.53c-4.84,0-8.52-1.16-11.06-3.46-2.54-2.31-3.81-5.64-3.81-10,0-4.02,1.27-7.16,3.82-9.41s6.1-3.37,10.66-3.37c4.86,0,8.57,1.13,11.14,3.38,2.57,2.25,3.85,5.47,3.85,9.66s-1.26,7.43-3.79,9.74c-2.53,2.31-6.13,3.46-10.81,3.46ZM750.99,251.94c-3.28,0-4.92,2.4-4.92,7.19,0,3.09.42,5.15,1.24,6.18.83,1.03,2.03,1.55,3.61,1.55,1.7,0,3-.52,3.91-1.55.91-1.03,1.36-3.06,1.36-6.07,0-4.87-1.74-7.3-5.21-7.3Z"/><path class="cls-2" d="M773.27,246.97h9.17l11.54,14.38-.33-2.69v-11.69h9.08v24.94h-9.32l-11.3-14.16.24,3.1v11.06h-9.08v-24.94Z"/><path class="cls-2" d="M811.95,271.45v-5.81c2.88,1.05,5.29,1.57,7.25,1.57,1.14,0,2.04-.2,2.7-.59.66-.39.99-.91.99-1.56,0-.5-.26-.96-.79-1.4-.53-.44-1.44-.96-2.74-1.59-3.14-1.49-5.41-2.89-6.82-4.17-1.41-1.29-2.11-2.72-2.11-4.31,0-2.15,1.09-3.91,3.27-5.27s5-2.04,8.45-2.04c2.56,0,5.09.34,7.61,1.03v5.59c-2.7-.92-4.89-1.38-6.56-1.38-1.12,0-2,.17-2.65.51-.65.34-.97.81-.97,1.41,0,1.05,1.51,2.22,4.53,3.53,1.8.77,3.62,1.86,5.47,3.26,1.85,1.4,2.77,3.02,2.77,4.87,0,2.15-1.21,3.94-3.63,5.35-2.42,1.41-5.48,2.12-9.2,2.12-2.54,0-5.06-.37-7.55-1.12Z"/><path class="cls-2" d="M844.72,263.77h12.12l-11.22,15.29h-8.52l7.62-15.29Z"/><path class="cls-2" d="M888.77,236.28h12.97v35.63h-12.97v-35.63Z"/><path class="cls-2" d="M913.46,246.97h9.17l11.54,14.38-.33-2.69v-11.69h9.08v24.94h-9.32l-11.3-14.16.24,3.1v11.06h-9.08v-24.94Z"/><path class="cls-2" d="M973.16,266.03v5.92c-1.92.39-3.64.58-5.16.58-5.26,0-9.52-1.23-12.78-3.69-3.27-2.46-4.9-5.69-4.9-9.7,0-3.72,1.65-6.8,4.95-9.22,3.3-2.42,7.46-3.63,12.5-3.63,1.96,0,3.76.16,5.4.49v5.94c-1.74-.36-3.38-.54-4.92-.54-2.36,0-4.32.67-5.88,2.02-1.56,1.35-2.34,3.06-2.34,5.14,0,2.24.78,4.01,2.35,5.31,1.57,1.3,3.66,1.95,6.28,1.95,1.28,0,2.78-.19,4.5-.56Z"/><path class="cls-2" d="M980.45,268.31c0-1.21.69-2.25,2.08-3.12,1.38-.87,3.06-1.31,5.03-1.31s3.66.43,5.07,1.29,2.12,1.89,2.12,3.08-.72,2.24-2.16,3.14-3.12,1.35-5.03,1.35-3.65-.43-5.03-1.29c-1.38-.86-2.08-1.91-2.08-3.14Z"/><path class="cls-2" d="M147.11,292.1l2.98,2.08c-1.97,1.36-3.03,2.79-3.2,4.3h3.8v5.3h-8.81v-3.94c0-1.27.41-2.59,1.23-3.98.82-1.38,2.15-2.64,4-3.76ZM159.19,292.1l3.06,2.08c-2.11,1.33-3.2,2.76-3.27,4.3h3.8v5.3h-8.81v-3.98c0-2.85,1.74-5.42,5.22-7.7Z"/><path class="cls-2" d="M173.74,292.99h21.78v6.14h-11.01v5.32h9.56v5.99h-9.56v5.25h11.08v6.16h-21.85v-28.87Z"/><path class="cls-2" d="M200.89,301.65h8.36c2.14,3.17,3.31,4.99,3.51,5.45h.1c.03-.14.35-.66.95-1.54l2.54-3.91h8.36l-7.71,9.64,8.36,10.57h-8.36c-2.67-3.8-4.06-5.85-4.18-6.15h-.1c-.28.65-.66,1.29-1.12,1.92l-3.06,4.22h-8.23l8.18-10.5-7.59-9.7Z"/><path class="cls-2" d="M229.93,301.65h9.33c3.28,0,5.92.57,7.91,1.71,1.99,1.14,2.99,2.64,2.99,4.51,0,1.97-1.01,3.51-3.02,4.62s-4.8,1.67-8.37,1.67h-1.29v7.69h-7.54v-20.21ZM237.47,305.52v4.77c1.69-.02,2.94-.22,3.74-.59.8-.37,1.21-.96,1.21-1.77,0-.87-.39-1.48-1.17-1.84-.78-.36-2.04-.55-3.78-.57Z"/><path class="cls-2" d="M256.36,301.65h15.25v4.3h-7.71v3.72h6.69v4.19h-6.69v3.68h7.76v4.31h-15.3v-20.21Z"/><path class="cls-2" d="M278.11,301.65h8.78c3.55,0,6.35.56,8.41,1.67,2.06,1.11,3.08,2.62,3.08,4.53,0,.98-.39,1.92-1.17,2.84-.78.91-1.92,1.6-3.41,2.07l6.02,9.11h-7.96l-6.09-9.2h-.12v9.2h-7.54v-20.21ZM285.64,305.55v4.8c3.33-.04,5-.75,5-2.13,0-.94-.39-1.61-1.16-2.01-.77-.4-2.05-.62-3.84-.65Z"/><path class="cls-2" d="M304.85,301.65h7.54v20.21h-7.54v-20.21Z"/><path class="cls-2" d="M320.26,301.65h15.25v4.3h-7.71v3.72h6.69v4.19h-6.69v3.68h7.76v4.31h-15.3v-20.21Z"/><path class="cls-2" d="M342.01,301.65h7.61l9.58,11.66-.27-2.18v-9.48h7.54v20.21h-7.73l-9.38-11.47.2,2.51v8.96h-7.54v-20.21Z"/><path class="cls-2" d="M391.54,317.09v4.8c-1.59.31-3.02.47-4.28.47-4.36,0-7.9-1-10.61-2.99-2.71-1.99-4.07-4.61-4.07-7.86,0-3.02,1.37-5.51,4.1-7.47,2.74-1.96,6.19-2.94,10.37-2.94,1.62,0,3.12.13,4.48.39v4.81c-1.44-.29-2.8-.44-4.08-.44-1.96,0-3.58.54-4.87,1.63-1.29,1.09-1.94,2.48-1.94,4.16,0,1.82.65,3.25,1.95,4.31s3.04,1.58,5.21,1.58c1.06,0,2.3-.15,3.73-.45Z"/><path class="cls-2" d="M396.93,301.65h15.25v4.3h-7.71v3.72h6.69v4.19h-6.69v3.68h7.76v4.31h-15.3v-20.21Z"/><path class="cls-2" d="M438.76,292.99h10.05c6.96,0,12.26,1.21,15.88,3.62,3.62,2.41,5.44,5.94,5.44,10.58,0,3.52-.89,6.36-2.68,8.52-1.79,2.16-4.29,3.73-7.5,4.69s-6.76,1.45-10.64,1.45h-10.55v-28.87ZM449.53,299.13v16.56c3.27-.17,5.58-.88,6.93-2.11,1.35-1.23,2.02-3.26,2.02-6.09,0-1.67-.24-3.09-.71-4.25-.47-1.16-1.18-2.05-2.11-2.68s-1.85-1.01-2.74-1.16c-.89-.14-2.02-.24-3.39-.28Z"/><path class="cls-2" d="M476.59,301.65h15.25v4.3h-7.71v3.72h6.69v4.19h-6.69v3.68h7.76v4.31h-15.3v-20.21Z"/><path class="cls-2" d="M498.34,301.65h9.33c3.28,0,5.92.57,7.91,1.71,1.99,1.14,2.99,2.64,2.99,4.51,0,1.97-1.01,3.51-3.02,4.62s-4.8,1.67-8.37,1.67h-1.29v7.69h-7.54v-20.21ZM505.88,305.52v4.77c1.69-.02,2.94-.22,3.74-.59.8-.37,1.21-.96,1.21-1.77,0-.87-.39-1.48-1.17-1.84-.78-.36-2.04-.55-3.78-.57Z"/><path class="cls-2" d="M524.76,301.65h15.25v4.3h-7.71v3.72h6.69v4.19h-6.69v3.68h7.76v4.31h-15.3v-20.21Z"/><path class="cls-2" d="M546.51,301.65h7.61l9.58,11.66-.27-2.18v-9.48h7.54v20.21h-7.73l-9.38-11.47.2,2.51v8.96h-7.54v-20.21Z"/><path class="cls-2" d="M578.61,301.65h7.04c4.88,0,8.58.85,11.12,2.54,2.54,1.69,3.8,4.16,3.8,7.41,0,2.46-.63,4.45-1.88,5.96-1.25,1.51-3,2.61-5.25,3.29-2.25.68-4.73,1.01-7.45,1.01h-7.39v-20.21ZM586.15,305.95v11.6c2.29-.12,3.9-.61,4.85-1.48.95-.86,1.42-2.28,1.42-4.26,0-1.17-.17-2.16-.5-2.97-.33-.81-.82-1.44-1.48-1.88s-1.29-.71-1.92-.81-1.41-.17-2.38-.2Z"/><path class="cls-2" d="M628.46,321.86h-7.83l-1.27-3.38h-7.96l-1.32,3.38h-7.68l8.8-20.21h8.46l8.8,20.21ZM617.92,314.85c-1.13-3.01-1.97-5.87-2.54-8.58h-.1c-.6,2.79-1.43,5.66-2.51,8.58h5.15Z"/><path class="cls-2" d="M632.78,301.65h7.66c4.46,0,7.67.53,9.62,1.6,1.96,1.07,2.94,2.42,2.94,4.06,0,1.78-1.43,3.2-4.28,4.28,3.23.78,4.85,2.25,4.85,4.44,0,1.75-1,3.15-3.01,4.22-2.01,1.07-4.65,1.6-7.93,1.6h-9.85v-20.21ZM640.31,305.52v4.36c3.37-.05,5.05-.76,5.05-2.13,0-.82-.4-1.39-1.21-1.71-.8-.32-2.09-.49-3.84-.51ZM640.31,313.54v4.38c1.91-.02,3.34-.2,4.29-.54s1.43-.9,1.43-1.67c0-1.44-1.7-2.17-5.1-2.17h-.62Z"/><path class="cls-2" d="M659.25,301.65h7.54v15.53h5.97v4.68h-13.5v-20.21Z"/><path class="cls-2" d="M678.37,301.65h15.25v4.3h-7.71v3.72h6.69v4.19h-6.69v3.68h7.76v4.31h-15.3v-20.21Z"/><path class="cls-2" d="M720.21,321.32v-6.73c3.41,1.21,6.28,1.82,8.6,1.82,1.35,0,2.42-.23,3.2-.68s1.17-1.06,1.17-1.81c0-.58-.31-1.12-.94-1.62-.63-.5-1.71-1.12-3.25-1.84-3.72-1.73-6.41-3.34-8.08-4.83-1.67-1.49-2.5-3.15-2.5-4.98,0-2.49,1.29-4.53,3.87-6.1,2.58-1.57,5.92-2.36,10.02-2.36,3.03,0,6.04.4,9.02,1.19v6.47c-3.2-1.07-5.79-1.6-7.78-1.6-1.33,0-2.38.2-3.14.59-.77.4-1.16.94-1.16,1.63,0,1.21,1.79,2.57,5.37,4.09,2.13.89,4.29,2.15,6.48,3.77,2.19,1.62,3.29,3.5,3.29,5.63,0,2.49-1.43,4.56-4.3,6.2-2.87,1.64-6.5,2.45-10.91,2.45-3.01,0-5.99-.43-8.95-1.3Z"/><path class="cls-2" d="M751.28,301.65h15.25v4.3h-7.71v3.72h6.69v4.19h-6.69v3.68h7.76v4.31h-15.3v-20.21Z"/><path class="cls-2" d="M773.03,301.65h8.78c3.55,0,6.35.56,8.41,1.67,2.06,1.11,3.08,2.62,3.08,4.53,0,.98-.39,1.92-1.17,2.84-.78.91-1.92,1.6-3.41,2.07l6.02,9.11h-7.96l-6.09-9.2h-.12v9.2h-7.54v-20.21ZM780.56,305.55v4.8c3.33-.04,5-.75,5-2.13,0-.94-.39-1.61-1.16-2.01-.77-.4-2.05-.62-3.84-.65Z"/><path class="cls-2" d="M795.52,301.65h7.86l4.1,8.93c.78,1.77,1.31,3.28,1.59,4.53h.1c.25-1.1.52-2,.82-2.71l4.58-10.75h8.06l-9.97,20.21h-6.99l-10.15-20.21Z"/><path class="cls-2" d="M827.47,301.65h7.54v20.21h-7.54v-20.21Z"/><path class="cls-2" d="M860.31,317.09v4.8c-1.59.31-3.02.47-4.28.47-4.36,0-7.9-1-10.61-2.99-2.71-1.99-4.07-4.61-4.07-7.86,0-3.02,1.37-5.51,4.1-7.47,2.74-1.96,6.19-2.94,10.37-2.94,1.62,0,3.12.13,4.48.39v4.81c-1.44-.29-2.8-.44-4.08-.44-1.96,0-3.58.54-4.87,1.63-1.29,1.09-1.94,2.48-1.94,4.16,0,1.82.65,3.25,1.95,4.31s3.04,1.58,5.21,1.58c1.06,0,2.3-.15,3.73-.45Z"/><path class="cls-2" d="M865.7,301.65h15.25v4.3h-7.71v3.72h6.69v4.19h-6.69v3.68h7.76v4.31h-15.3v-20.21Z"/><path class="cls-2" d="M889.72,292.14h8.81v2.96c0,3.69-1.8,6.58-5.4,8.67l-2.91-2.03c1.94-1.36,3.01-2.78,3.2-4.28h-3.7v-5.32ZM901.73,292.14h8.81v2.92c0,3.85-1.78,6.77-5.33,8.76l-2.98-2.08c1.94-1.36,3.01-2.78,3.2-4.28h-3.7v-5.32Z"/><path class="cls-2" d="M798.07,338.31h11.8v3.33h-5.97v2.88h5.18v3.25h-5.18v2.85h6.01v3.34h-11.84v-15.64Z"/><path class="cls-2" d="M814.08,353.75v-2.55c1.29.46,2.38.69,3.26.69.51,0,.92-.09,1.21-.26.3-.17.44-.4.44-.68,0-.22-.12-.42-.36-.62s-.65-.42-1.23-.7c-1.41-.66-2.43-1.27-3.07-1.83-.63-.57-.95-1.2-.95-1.89,0-.95.49-1.72,1.47-2.31.98-.6,2.25-.89,3.8-.89,1.15,0,2.29.15,3.42.45v2.45c-1.21-.41-2.2-.61-2.95-.61-.5,0-.9.08-1.19.23-.29.15-.44.36-.44.62,0,.46.68.98,2.04,1.55.81.34,1.63.82,2.46,1.43s1.25,1.33,1.25,2.14c0,.95-.54,1.73-1.63,2.35-1.09.62-2.47.93-4.14.93-1.14,0-2.27-.16-3.4-.49Z"/><path class="cls-2" d="M825.1,343.01h9.75v2.5h-2.82v8.45h-4.14v-8.45h-2.79v-2.5Z"/><path class="cls-2" d="M838.02,352.38c0-.53.31-.99.93-1.37.62-.38,1.38-.57,2.26-.57s1.65.19,2.28.57c.63.38.95.83.95,1.35s-.32.98-.97,1.38-1.4.59-2.26.59-1.64-.19-2.26-.57c-.62-.38-.93-.84-.93-1.38Z"/><path class="cls-2" d="M861.01,338.31h8.84v15.64h-5.56v-12.36h-3.27v-3.28Z"/><path class="cls-2" d="M885.15,350.36l1.66-2.36c-.89.16-1.66.25-2.31.25-1.89,0-3.41-.45-4.57-1.35s-1.74-2.09-1.74-3.57c0-1.63.75-2.95,2.26-3.95,1.51-1,3.49-1.5,5.94-1.5s4.5.48,6,1.45c1.5.97,2.24,2.27,2.24,3.9,0,.61-.17,1.37-.51,2.27s-.77,1.77-1.29,2.58c-.52.82-1.99,2.77-4.4,5.87h-6.1l2.83-3.6ZM889.02,343.18c0-.68-.23-1.22-.7-1.63-.47-.41-1.09-.62-1.86-.62s-1.44.21-1.96.62-.79.93-.79,1.56c0,.73.25,1.32.74,1.75.49.43,1.15.65,1.97.65.71,0,1.32-.23,1.83-.68.51-.45.77-1,.77-1.65Z"/><path class="cls-2" d="M904.87,350.36l1.66-2.36c-.89.16-1.66.25-2.31.25-1.89,0-3.41-.45-4.57-1.35s-1.74-2.09-1.74-3.57c0-1.63.75-2.95,2.26-3.95,1.51-1,3.49-1.5,5.94-1.5s4.5.48,6,1.45c1.5.97,2.24,2.27,2.24,3.9,0,.61-.17,1.37-.51,2.27s-.77,1.77-1.29,2.58c-.52.82-1.99,2.77-4.4,5.87h-6.1l2.83-3.6ZM908.74,343.18c0-.68-.23-1.22-.7-1.63-.47-.41-1.09-.62-1.86-.62s-1.44.21-1.96.62-.79.93-.79,1.56c0,.73.25,1.32.74,1.75.49.43,1.15.65,1.97.65.71,0,1.32-.23,1.83-.68.51-.45.77-1,.77-1.65Z"/><path class="cls-2" d="M928.87,345.42c1.46.38,2.6.96,3.4,1.75.8.78,1.2,1.66,1.2,2.65,0,1.38-.7,2.49-2.1,3.32-1.4.83-3.27,1.24-5.62,1.24s-4.3-.41-5.69-1.23-2.09-1.93-2.09-3.33c0-.35.04-.68.12-.99s.2-.6.36-.87c.16-.27.36-.52.61-.76.24-.24.53-.46.86-.66s.71-.39,1.16-.57c.44-.18.9-.35,1.38-.52v-.02h-.04s-.01-.02-.04-.02c0-.02-.01-.02-.04-.02-.77-.22-1.41-.46-1.92-.73-.51-.27-.94-.64-1.3-1.13s-.54-1.05-.54-1.69c0-1.12.68-2.05,2.04-2.79,1.36-.75,3.06-1.12,5.1-1.12s3.78.38,5.1,1.14c1.32.76,1.98,1.73,1.98,2.92,0,.78-.32,1.45-.95,1.99-.64.55-1.63,1.04-2.98,1.46ZM927.79,349.52c0-1.53-.69-2.3-2.08-2.3s-2.18.7-2.18,2.11c0,1.5.74,2.25,2.21,2.25,1.36,0,2.04-.69,2.04-2.06ZM927.18,342.46c0-1.13-.49-1.7-1.46-1.7s-1.5.5-1.5,1.51c0,.61.12,1.04.36,1.29.24.25.63.38,1.18.38.95,0,1.42-.5,1.42-1.49Z"/><path class="cls-2" d="M332.92,346.67l4.68,1.46c-4.38,4.15-6.56,9.25-6.56,15.28,0,2.75.56,5.49,1.69,8.2,1.13,2.72,2.68,5.07,4.65,7.04l-4.53,1.43c-2.3-2.16-4.03-4.76-5.19-7.79-1.16-3.03-1.74-5.94-1.74-8.73,0-6.64,2.33-12.27,6.99-16.9Z"/><path class="cls-2" d="M352.47,367.22l2.65-3.77c-1.42.26-2.65.39-3.7.39-3.02,0-5.46-.72-7.32-2.17-1.86-1.44-2.79-3.35-2.79-5.71,0-2.61,1.21-4.72,3.62-6.32,2.41-1.6,5.58-2.4,9.5-2.4s7.2.78,9.6,2.33c2.39,1.55,3.59,3.63,3.59,6.24,0,.98-.27,2.19-.82,3.64-.54,1.45-1.23,2.83-2.06,4.13-.83,1.31-3.18,4.44-7.04,9.39h-9.77l4.53-5.76ZM358.66,355.73c0-1.09-.38-1.96-1.12-2.62-.75-.66-1.74-.98-2.97-.98s-2.3.33-3.14.99c-.84.66-1.26,1.49-1.26,2.49,0,1.17.4,2.11,1.19,2.8.79.69,1.84,1.04,3.16,1.04,1.13,0,2.11-.36,2.93-1.09.82-.73,1.23-1.61,1.23-2.64Z"/><path class="cls-2" d="M378.95,347.91h17.47l-.19,5.03h-10.6l-.89,3.81c3.94.08,6.96.82,9.04,2.24,2.08,1.42,3.13,3.36,3.13,5.82,0,2.7-1.22,4.85-3.67,6.44-2.44,1.59-5.74,2.39-9.89,2.39-2.32,0-5.35-.38-9.09-1.12l1.2-4.8c2.98.73,5.21,1.09,6.69,1.09,1.85,0,3.28-.37,4.28-1.11s1.51-1.79,1.51-3.17c0-1.17-.66-2.08-1.99-2.72-1.32-.64-3.22-.96-5.68-.96-1.11,0-2.55.11-4.31.34l2.99-13.28Z"/><path class="cls-2" d="M417.26,347.94h9.58v15.51h3.2v4.54h-3.2v4.99h-8.53v-4.99h-13.19v-4.07l12.14-15.98ZM418.19,355.5l-5.98,7.95h6.1v-7.95h-.12Z"/><path class="cls-2" d="M434.75,348.13l4.59-1.5c4.6,4.81,6.9,10.42,6.9,16.82s-2.34,11.95-7.02,16.63l-4.59-1.46c4.33-4.3,6.5-9.36,6.5-15.17s-2.13-11.13-6.38-15.32Z"/><path class="cls-2" d="M478.87,357.23h-9.03c0-1.88.13-3.34.38-4.41s.79-2,1.6-2.82c.81-.82,2.05-1.48,3.73-1.97,1.67-.49,3.66-.74,5.96-.74,3.8,0,6.72.61,8.75,1.82s3.05,2.96,3.05,5.25c0,1.18-.39,2.44-1.17,3.8-.78,1.36-1.95,2.85-3.51,4.47l-5.05,5.25h8.29v5.1h-23.48l13.43-13.97c1.64-1.67,2.46-3.2,2.46-4.58,0-.69-.25-1.25-.74-1.69s-1.11-.66-1.85-.66c-1.17,0-1.94.28-2.3.85-.36.57-.54,1.69-.54,3.37v.92Z"/><path class="cls-2" d="M506.15,347.91h17.47l-.19,5.03h-10.6l-.89,3.81c3.94.08,6.96.82,9.04,2.24s3.13,3.36,3.13,5.82c0,2.7-1.22,4.85-3.67,6.44s-5.74,2.39-9.89,2.39c-2.32,0-5.35-.38-9.09-1.12l1.2-4.8c2.98.73,5.21,1.09,6.69,1.09,1.85,0,3.28-.37,4.28-1.11s1.51-1.79,1.51-3.17c0-1.17-.66-2.08-1.99-2.72-1.32-.64-3.22-.96-5.68-.96-1.11,0-2.55.11-4.31.34l2.99-13.28Z"/><path class="cls-2" d="M542,357.23h-9.03c0-1.88.13-3.34.38-4.41s.79-2,1.6-2.82c.81-.82,2.05-1.48,3.73-1.97,1.67-.49,3.66-.74,5.96-.74,3.8,0,6.72.61,8.75,1.82,2.03,1.21,3.05,2.96,3.05,5.25,0,1.18-.39,2.44-1.17,3.8s-1.95,2.85-3.51,4.47l-5.05,5.25h8.29v5.1h-23.48l13.43-13.97c1.64-1.67,2.46-3.2,2.46-4.58,0-.69-.25-1.25-.74-1.69-.49-.44-1.11-.66-1.85-.66-1.17,0-1.94.28-2.3.85-.36.57-.54,1.69-.54,3.37v.92Z"/><path class="cls-2" d="M563.77,362.03h14.2v4.69h-14.2v-4.69Z"/><path class="cls-2" d="M594.75,367.22l2.65-3.77c-1.42.26-2.65.39-3.7.39-3.02,0-5.46-.72-7.32-2.17-1.86-1.44-2.79-3.35-2.79-5.71,0-2.61,1.21-4.72,3.62-6.32,2.41-1.6,5.58-2.4,9.51-2.4s7.2.78,9.6,2.33c2.39,1.55,3.59,3.63,3.59,6.24,0,.98-.27,2.19-.82,3.64-.54,1.45-1.23,2.83-2.06,4.13-.83,1.31-3.18,4.44-7.04,9.39h-9.77l4.53-5.76ZM600.94,355.73c0-1.09-.38-1.96-1.12-2.62s-1.74-.98-2.97-.98-2.3.33-3.14.99c-.84.66-1.26,1.49-1.26,2.49,0,1.17.4,2.11,1.19,2.8.79.69,1.84,1.04,3.16,1.04,1.13,0,2.1-.36,2.93-1.09.82-.73,1.23-1.61,1.23-2.64Z"/><path class="cls-2" d="M626.31,367.22l2.65-3.77c-1.42.26-2.65.39-3.7.39-3.02,0-5.46-.72-7.32-2.17-1.86-1.44-2.79-3.35-2.79-5.71,0-2.61,1.21-4.72,3.62-6.32,2.41-1.6,5.58-2.4,9.51-2.4s7.2.78,9.6,2.33c2.39,1.55,3.59,3.63,3.59,6.24,0,.98-.27,2.19-.82,3.64-.54,1.45-1.23,2.83-2.06,4.13-.83,1.31-3.18,4.44-7.04,9.39h-9.77l4.53-5.76ZM632.5,355.73c0-1.09-.38-1.96-1.12-2.62s-1.74-.98-2.97-.98-2.3.33-3.14.99c-.84.66-1.26,1.49-1.26,2.49,0,1.17.4,2.11,1.19,2.8.79.69,1.84,1.04,3.16,1.04,1.13,0,2.1-.36,2.93-1.09.82-.73,1.23-1.61,1.23-2.64Z"/><path class="cls-2" d="M664.71,359.31c2.34.61,4.15,1.54,5.44,2.79,1.28,1.25,1.93,2.66,1.93,4.24,0,2.21-1.12,3.98-3.36,5.31-2.24,1.33-5.24,1.99-9,1.99s-6.88-.66-9.1-1.97-3.34-3.09-3.34-5.33c0-.56.06-1.09.18-1.58.12-.49.31-.96.57-1.39s.58-.84.97-1.22c.39-.38.85-.73,1.37-1.06.52-.33,1.14-.63,1.85-.91.71-.28,1.44-.56,2.2-.83v-.04h-.06s-.02-.04-.06-.04c0-.02-.02-.04-.06-.04-1.23-.35-2.25-.74-3.07-1.16-.81-.42-1.5-1.03-2.08-1.81s-.86-1.68-.86-2.71c0-1.79,1.09-3.28,3.27-4.47,2.18-1.19,4.9-1.79,8.17-1.79s6.05.61,8.17,1.82c2.12,1.21,3.17,2.77,3.17,4.67,0,1.25-.51,2.31-1.53,3.19-1.02.88-2.6,1.66-4.76,2.34ZM662.99,365.87c0-2.45-1.11-3.67-3.33-3.67s-3.48,1.12-3.48,3.38c0,2.4,1.18,3.6,3.54,3.6,2.18,0,3.27-1.1,3.27-3.3ZM662,354.58c0-1.81-.78-2.72-2.34-2.72s-2.4.81-2.4,2.42c0,.98.19,1.67.57,2.07s1.01.61,1.89.61c1.52,0,2.28-.79,2.28-2.38Z"/><path class="cls-2" d="M691.17,347.29c4.46,0,7.84,1.12,10.15,3.36,2.31,2.24,3.47,5.53,3.47,9.88s-1.18,7.48-3.53,9.73c-2.35,2.25-5.72,3.38-10.09,3.38-4.15,0-7.45-1.05-9.91-3.16-2.46-2.11-3.68-5.51-3.68-10.21,0-4.13,1.18-7.32,3.54-9.58,2.36-2.26,5.67-3.39,9.92-3.39h.12ZM686.54,360.23c0,5.35,1.52,8.03,4.56,8.03,1.64,0,2.83-.59,3.56-1.77.73-1.18,1.09-3.06,1.09-5.63,0-2.84-.37-4.9-1.09-6.2-.73-1.29-1.94-1.94-3.62-1.94-3,0-4.5,2.51-4.5,7.52Z"/></svg>